<svg preserveAspectRatio="none" overflow="visible" style="display: block;" width="80.8619" height="30.9988" viewBox="0 0 80.8619 30.9988" fill="none" xmlns="http://www.w3.org/2000/svg">
<g id="Group 1410119445">
<path id="Subtract" d="M69.7916 6.073C72.3548 5.74208 75.4065 6.83883 77.3619 8.4812C79.3455 10.1435 80.5895 12.5251 80.8199 15.1033C81.064 17.739 80.2375 20.3622 78.5269 22.3816C74.4677 27.1724 68.5607 26.3562 63.5142 24.2019C61.3212 23.2658 58.0132 23.1247 55.7027 23.7302C50.6892 25.0444 48.6233 30.84 43.0269 30.9685C39.6867 31.1628 37.2681 30.4394 34.7203 28.2625C35.5145 27.0853 36.3163 25.9131 37.1265 24.7468C39.4105 26.5112 42.6155 27.5822 45.1959 25.5613C46.3818 24.6322 46.7367 23.2912 46.8746 21.8455C45.4548 23.0409 44.3472 23.4376 42.4937 23.5203C39.4113 23.5283 36.6561 22.086 35.2398 19.2703C34.1141 17.0319 34.3058 14.5443 34.3072 12.114L34.3062 6.37085L38.9019 6.36792L38.9009 12.1345C38.8979 13.3946 38.8004 14.8799 39.0318 16.1023C39.8179 20.2542 45.834 20.2998 46.7007 16.158C46.9896 14.7796 46.8837 13.3174 46.8804 11.907L46.8687 6.3728L51.438 6.36792L51.4429 21.0896C54.4695 19.132 57.5219 18.7349 61.023 19.3992C60.6941 18.4471 60.4694 17.801 60.3736 16.7839C60.1419 14.1869 60.9617 11.6051 62.65 9.61792C64.4984 7.39767 66.9619 6.33495 69.7916 6.073ZM76.2398 15.1902C75.8033 12.0304 72.8781 9.83056 69.7222 10.2888C66.5971 10.7428 64.4242 13.6337 64.856 16.7625C65.2879 19.8911 68.1626 22.0854 71.2935 21.6755C74.4554 21.2612 76.6757 18.3501 76.2398 15.1902Z" fill="#0D1E1D"/>
<path id="Subtract_2" d="M8.41783 6.00956C10.836 5.74745 12.7879 6.49567 14.6952 7.90214L14.6854 6.39921C16.2968 6.37991 17.9352 6.39698 19.5487 6.39921L19.5477 23.783L14.6825 23.782V22.2019C14.2327 22.6136 13.7327 22.9446 13.2059 23.2469C12.1876 23.7497 11.3436 24.0171 10.2176 24.1307C4.98239 24.6585 0.55841 21.299 0.0467399 15.9676C-0.198908 13.5349 0.530493 11.1038 2.07506 9.20878C3.72396 7.21905 5.88246 6.25341 8.41783 6.00956ZM9.43834 10.0545C6.6408 10.1942 4.49087 12.5831 4.6444 15.3807C4.79803 18.1781 7.19699 20.3167 9.99303 20.1492C12.7693 19.9826 14.8896 17.6038 14.7372 14.826C14.5846 12.0481 12.2162 9.91582 9.43834 10.0545Z" fill="#0D1E1D"/>
<path id="Vector" d="M21.5041 0L26.1442 0.00216599L26.1503 23.7798C24.7391 23.8384 22.9419 23.785 21.5003 23.7843L21.5041 0Z" fill="#0D1E1D"/>
<path id="Vector_2" d="M28.0545 0.00405626L32.6549 0.00208664L32.6535 23.7794C31.1395 23.8061 29.5664 23.7838 28.048 23.7829L28.0545 0.00405626Z" fill="#0D1E1D"/>
</g>
</svg>
